<svg width="260" height="115" viewBox="0 0 260 115" fill="none" xmlns="http://www.w3.org/2000/svg">
<rect opacity="0.3" x="201.772" y="-99" width="100.893" height="307.002" transform="rotate(45 201.772 -99)" fill="url(#paint0_linear_392_5)"/>
<path opacity="0.2" d="M78 102L44.9716 68.6122M78 102L12.0653 90.8928C11.4105 90.7825 10.796 90.5 10.2835 90.0737C9.77093 89.6473 9.37841 89.0922 9.14533 88.464L-1.43614 59.9435M78 102L67.0109 35.3568C66.9017 34.695 66.6222 34.0738 66.2004 33.5558C65.7786 33.0377 65.2294 32.641 64.6079 32.4054L36.3906 21.7102M-1.43614 59.9435L36.3906 21.7102M-1.43614 59.9435L-13.8921 47.3531C-14.2433 46.998 -14.522 46.5766 -14.7121 46.1127C-14.9022 45.6488 -15 45.1517 -15 44.6496C-15 44.1475 -14.9022 43.6503 -14.7121 43.1864C-14.522 42.7226 -14.2433 42.3011 -13.8921 41.9461L18.5851 9.11982C19.2945 8.40281 20.2567 8 21.2599 8C22.2631 8 23.2253 8.40281 23.9347 9.11982L36.3906 21.7102M28.8289 61.8532C28.8289 67.1322 33.0628 71.4116 38.2856 71.4116C43.5084 71.4116 47.7423 67.1322 47.7423 61.8532C47.7423 56.5743 43.5084 52.2949 38.2856 52.2949C33.0628 52.2949 28.8289 56.5743 28.8289 61.8532Z" stroke="white" stroke-width="5" stroke-linecap="round" stroke-linejoin="round"/>
<defs>
<linearGradient id="paint0_linear_392_5" x1="302.209" y1="42.8341" x2="207.457" y2="42.8341" gradientUnits="userSpaceOnUse">
<stop stop-color="white" stop-opacity="0"/>
<stop offset="0.473958" stop-color="white" stop-opacity="0.89"/>
<stop offset="1" stop-color="white" stop-opacity="0"/>
</linearGradient>
</defs>
</svg>
