<svg width="14" height="16" viewBox="0 0 14 16" fill="none" xmlns="http://www.w3.org/2000/svg">
<path d="M3.4 3.33333V1.58333C3.4 1.42862 3.46321 1.28025 3.57574 1.17085C3.68826 1.06146 3.84087 1 4 1H10L13 3.91667V12.0833C13 12.238 12.9368 12.3864 12.8243 12.4958C12.7117 12.6052 12.5591 12.6667 12.4 12.6667H10.6M4 9.75H7.6M4 12.0833H7.6M10 15H1.6C1.44087 15 1.28826 14.9385 1.17574 14.8291C1.06321 14.7197 1 14.5714 1 14.4167V3.91667C1 3.76196 1.06321 3.61358 1.17574 3.50419C1.28826 3.39479 1.44087 3.33333 1.6 3.33333H7.6L10.6 6.25V14.4167C10.6 14.5714 10.5368 14.7197 10.4243 14.8291C10.3117 14.9385 10.1591 15 10 15Z" stroke="#4A4A49" stroke-linecap="round" stroke-linejoin="round"/>
</svg>
