<svg width="17" height="19" viewBox="0 0 17 19" fill="none" xmlns="http://www.w3.org/2000/svg">
<path d="M11.7141 5.24989L4.27568 12.7484C4.00776 13.0141 3.85724 13.3744 3.85724 13.7501C3.85724 14.1258 4.00776 14.4861 4.27568 14.7518C4.54359 15.0175 4.90697 15.1667 5.28586 15.1667C5.66476 15.1667 6.02813 15.0175 6.29605 14.7518L15.1631 5.83668C15.4285 5.57359 15.6389 5.26125 15.7825 4.9175C15.9261 4.57376 16 4.20533 16 3.83326C16 3.46119 15.9261 3.09277 15.7825 2.74902C15.6389 2.40527 15.4285 2.09294 15.1631 1.82984C14.8978 1.56675 14.5828 1.35805 14.2362 1.21567C13.8895 1.07328 13.518 1 13.1428 1C12.7675 1 12.396 1.07328 12.0493 1.21567C11.7027 1.35805 11.3877 1.56675 11.1224 1.82984L2.2553 10.745C1.45155 11.542 1 12.623 1 13.7501C1 14.8772 1.45155 15.9582 2.2553 16.7552C3.05906 17.5522 4.14918 18 5.28586 18C6.42255 18 7.51267 17.5522 8.31643 16.7552L15.6428 9.49979" stroke="#4A4A49" stroke-width="1.5" stroke-linecap="round" stroke-linejoin="round"/>
</svg>
