<svg width="12" height="16" viewBox="0 0 12 16" fill="none" xmlns="http://www.w3.org/2000/svg">
<path d="M6.18814 8.26339C7.33427 8.26339 8.26339 7.33427 8.26339 6.18814C8.26339 5.04201 7.33427 4.11288 6.18814 4.11288C5.04201 4.11288 4.11288 5.04201 4.11288 6.18814C4.11288 7.33427 5.04201 8.26339 6.18814 8.26339Z" stroke="#6B6B6B" stroke-width="1.03763" stroke-linecap="round" stroke-linejoin="round"/>
<path d="M11.3763 6.18814C11.3763 10.8575 6.18814 14.4892 6.18814 14.4892C6.18814 14.4892 1 10.8575 1 6.18814C1 4.81216 1.54661 3.49254 2.51957 2.51957C3.49254 1.54661 4.81216 1 6.18814 1C7.56412 1 8.88374 1.54661 9.85671 2.51957C10.8297 3.49254 11.3763 4.81216 11.3763 6.18814Z" stroke="#6B6B6B" stroke-width="1.03763" stroke-linecap="round" stroke-linejoin="round"/>
</svg>
