<svg width="73" height="96" viewBox="0 0 73 96" fill="none" xmlns="http://www.w3.org/2000/svg">
<path opacity="0.2" d="M-12 52.0909V7.09091C-12 6.00593 -11.5681 4.96539 -10.7993 4.1982C-10.0304 3.43101 -8.98769 3 -7.90041 3H41.2987M41.2987 3L69.9959 31.6364V52.0909M41.2987 3V31.6364H70M-11.996 84.8182H-3.79681C-1.62225 84.8182 0.463249 83.9562 2.0009 82.4218C3.53854 80.8874 4.40238 78.8063 4.40238 76.6364C4.40238 74.4664 3.53854 72.3853 2.0009 70.8509C0.463249 69.3166 -1.62225 68.4545 -3.79681 68.4545H-11.996V93M69.9959 68.4545H55.6473V93M67.9461 82.7727H55.6473M26.9502 93C30.212 93 33.3402 91.707 35.6467 89.4054C37.9532 87.1038 39.2489 83.9822 39.2489 80.7273C39.2489 77.4723 37.9532 74.3507 35.6467 72.0491C33.3402 69.7476 30.212 68.4545 26.9502 68.4545H20.8008V93H26.9502Z" stroke="white" stroke-width="5" stroke-linecap="round" stroke-linejoin="round"/>
</svg>
