<svg width="14" height="14" viewBox="0 0 14 14" fill="none" xmlns="http://www.w3.org/2000/svg">
<path d="M4.40318 6.99827C4.94134 8.0985 5.83318 8.98629 6.93586 9.51944C7.01653 9.55767 7.10577 9.57423 7.1948 9.5675C7.28382 9.56076 7.36955 9.53096 7.44356 9.48103L9.06717 8.39837C9.13897 8.35049 9.22159 8.32128 9.30754 8.31338C9.39348 8.30548 9.48004 8.31916 9.55937 8.35315L12.5968 9.65492C12.7 9.69875 12.7862 9.77493 12.8423 9.87198C12.8984 9.96902 12.9215 10.0817 12.908 10.193C12.812 10.9442 12.4455 11.6347 11.877 12.1352C11.3086 12.6356 10.5772 12.9117 9.81984 12.9118C7.48067 12.9118 5.23731 11.9825 3.58327 10.3285C1.92923 8.67445 1 6.43109 1 4.09192C1.00004 3.33457 1.27613 2.60319 1.77659 2.03474C2.27704 1.46629 2.96753 1.09975 3.71878 1.00375C3.83007 0.990277 3.94273 1.01334 4.03978 1.06947C4.13682 1.12559 4.213 1.21174 4.25683 1.31492L5.55974 4.35503C5.59344 4.43367 5.60717 4.51941 5.59971 4.60464C5.59225 4.68987 5.56383 4.77193 5.51698 4.84351L4.43808 6.49202C4.38898 6.56618 4.35995 6.65181 4.35383 6.74054C4.34771 6.82927 4.36472 6.91807 4.40318 6.99827V6.99827Z" stroke="#6B6B6B" stroke-width="1.03763" stroke-linecap="round" stroke-linejoin="round"/>
</svg>
