<?xml version="1.0" encoding="utf-8"?>
<!-- Generator: Adobe Illustrator 15.0.0, SVG Export Plug-In . SVG Version: 6.00 Build 0)  -->
<!DOCTYPE svg PUBLIC "-//W3C//DTD SVG 1.1//EN" "http://www.w3.org/Graphics/SVG/1.1/DTD/svg11.dtd">
<svg version="1.1" id="Layer_1" xmlns="http://www.w3.org/2000/svg" xmlns:xlink="http://www.w3.org/1999/xlink" x="0px" y="0px"
	 width="12px" height="14.2px" viewBox="0 0 12 14.2" enable-background="new 0 0 12 14.2" xml:space="preserve">
<path fill="#010202" d="M6.75,6.68l4.93-4.881c0.41-0.399,0.41-1.06,0-1.459c-0.402-0.409-1.061-0.413-1.471-0.01
	c-0.002,0.003-0.006,0.006-0.008,0.01L6,4.489L1.78,0.31C1.376-0.1,0.718-0.104,0.309,0.301C0.306,0.303,0.303,0.307,0.3,0.31
	c-0.4,0.399-0.4,1.06,0,1.46l4.94,4.88l0.02,0.01L5.27,6.68C5.67,7.08,6.339,7.08,6.75,6.68z M6.65,13.799l4.12-3.5
	c0.291-0.229,0.34-0.65,0.109-0.94c-0.031-0.04-0.068-0.077-0.109-0.108c-0.361-0.291-0.877-0.291-1.238,0L6.03,12.229l-3.53-3
	c-0.362-0.291-0.878-0.291-1.24,0c-0.29,0.229-0.339,0.651-0.109,0.941c0.032,0.04,0.068,0.077,0.109,0.108l4.12,3.5l0.02,0.01v0.01
	c0.35,0.291,0.9,0.291,1.24,0H6.65z"/>
</svg>
